<?xml version="1.0" encoding="UTF-8"?>
<svg xmlns="http://www.w3.org/2000/svg" xmlns:xlink="http://www.w3.org/1999/xlink" width="122.372pt" height="139.38pt" viewBox="0 0 122.372 139.38" version="1.1">
<defs>
<g>
<symbol overflow="visible" id="glyph0-0">
<path style="stroke:none;" d=""/>
</symbol>
<symbol overflow="visible" id="glyph0-1">
<path style="stroke:none;" d="M 4 -3.171875 C 3.640625 -3.09375 3.625 -2.78125 3.625 -2.75 C 3.625 -2.578125 3.765625 -2.453125 3.9375 -2.453125 C 4.109375 -2.453125 4.375 -2.59375 4.375 -2.9375 C 4.375 -3.390625 3.875 -3.515625 3.578125 -3.515625 C 3.21875 -3.515625 2.90625 -3.25 2.71875 -2.9375 C 2.546875 -3.359375 2.140625 -3.515625 1.8125 -3.515625 C 0.9375 -3.515625 0.453125 -2.515625 0.453125 -2.296875 C 0.453125 -2.21875 0.515625 -2.1875 0.578125 -2.1875 C 0.671875 -2.1875 0.6875 -2.234375 0.703125 -2.328125 C 0.890625 -2.90625 1.375 -3.296875 1.78125 -3.296875 C 2.09375 -3.296875 2.25 -3.0625 2.25 -2.78125 C 2.25 -2.625 2.15625 -2.25 2.09375 -2 C 2.03125 -1.765625 1.859375 -1.0625 1.8125 -0.90625 C 1.703125 -0.484375 1.421875 -0.140625 1.0625 -0.140625 C 1.03125 -0.140625 0.828125 -0.140625 0.65625 -0.25 C 1.015625 -0.34375 1.015625 -0.671875 1.015625 -0.6875 C 1.015625 -0.875 0.875 -0.984375 0.703125 -0.984375 C 0.484375 -0.984375 0.25 -0.796875 0.25 -0.5 C 0.25 -0.125 0.640625 0.078125 1.046875 0.078125 C 1.46875 0.078125 1.765625 -0.234375 1.90625 -0.5 C 2.09375 -0.109375 2.453125 0.078125 2.84375 0.078125 C 3.703125 0.078125 4.1875 -0.921875 4.1875 -1.140625 C 4.1875 -1.21875 4.125 -1.25 4.0625 -1.25 C 3.96875 -1.25 3.953125 -1.1875 3.921875 -1.109375 C 3.765625 -0.578125 3.3125 -0.140625 2.859375 -0.140625 C 2.59375 -0.140625 2.40625 -0.3125 2.40625 -0.65625 C 2.40625 -0.8125 2.453125 -1 2.5625 -1.4375 C 2.609375 -1.6875 2.78125 -2.375 2.828125 -2.53125 C 2.9375 -2.953125 3.21875 -3.296875 3.578125 -3.296875 C 3.625 -3.296875 3.828125 -3.296875 4 -3.171875 Z M 4 -3.171875 "/>
</symbol>
<symbol overflow="visible" id="glyph0-2">
<path style="stroke:none;" d="M 4.125 -3 C 4.15625 -3.109375 4.15625 -3.125 4.15625 -3.1875 C 4.15625 -3.390625 4 -3.4375 3.90625 -3.4375 C 3.859375 -3.4375 3.6875 -3.421875 3.578125 -3.21875 C 3.5625 -3.171875 3.484375 -2.890625 3.453125 -2.71875 L 2.96875 -0.8125 C 2.96875 -0.78125 2.625 -0.140625 2.046875 -0.140625 C 1.65625 -0.140625 1.515625 -0.4375 1.515625 -0.78125 C 1.515625 -1.25 1.78125 -1.953125 1.96875 -2.421875 C 2.046875 -2.625 2.078125 -2.6875 2.078125 -2.84375 C 2.078125 -3.28125 1.71875 -3.515625 1.359375 -3.515625 C 0.5625 -3.515625 0.234375 -2.390625 0.234375 -2.296875 C 0.234375 -2.21875 0.296875 -2.1875 0.359375 -2.1875 C 0.46875 -2.1875 0.46875 -2.234375 0.5 -2.3125 C 0.703125 -3.015625 1.046875 -3.296875 1.328125 -3.296875 C 1.453125 -3.296875 1.515625 -3.21875 1.515625 -3.03125 C 1.515625 -2.859375 1.453125 -2.671875 1.40625 -2.53125 C 1.078125 -1.6875 0.9375 -1.28125 0.9375 -0.90625 C 0.9375 -0.125 1.53125 0.078125 2 0.078125 C 2.375 0.078125 2.640625 -0.09375 2.84375 -0.265625 C 2.71875 0.171875 2.640625 0.484375 2.34375 0.875 C 2.078125 1.1875 1.765625 1.40625 1.40625 1.40625 C 1.265625 1.40625 0.96875 1.375 0.8125 1.140625 C 1.234375 1.109375 1.265625 0.75 1.265625 0.703125 C 1.265625 0.515625 1.109375 0.40625 0.953125 0.40625 C 0.765625 0.40625 0.5 0.546875 0.5 0.9375 C 0.5 1.3125 0.84375 1.625 1.40625 1.625 C 2.21875 1.625 3.125 0.96875 3.375 0.015625 Z M 4.125 -3 "/>
</symbol>
<symbol overflow="visible" id="glyph0-3">
<path style="stroke:none;" d="M 6.21875 -3.421875 C 6.21875 -4.734375 5.3125 -5.609375 4.046875 -5.609375 C 2.1875 -5.609375 0.40625 -3.765625 0.40625 -1.984375 C 0.40625 -0.765625 1.265625 0.171875 2.609375 0.171875 C 4.390625 0.171875 6.21875 -1.546875 6.21875 -3.421875 Z M 2.671875 -0.09375 C 1.859375 -0.09375 1.1875 -0.671875 1.1875 -1.8125 C 1.1875 -1.9375 1.1875 -3.28125 2.109375 -4.40625 C 2.40625 -4.765625 3.125 -5.359375 3.984375 -5.359375 C 4.78125 -5.359375 5.484375 -4.8125 5.484375 -3.703125 C 5.484375 -3.265625 5.3125 -2.03125 4.5 -1.046875 C 4.03125 -0.5 3.34375 -0.09375 2.671875 -0.09375 Z M 2.671875 -0.09375 "/>
</symbol>
</g>
<clipPath id="clip1">
  <path d="M 10.160156 10.160156 L 43 10.160156 L 43 53 L 10.160156 53 Z M 10.160156 10.160156 "/>
</clipPath>
<clipPath id="clip2">
  <path d="M 45 65 L 112.210938 65 L 112.210938 129.21875 L 45 129.21875 Z M 45 65 "/>
</clipPath>
</defs>
<g id="surface1">
<path style="fill:none;stroke-width:0.3985;stroke-linecap:round;stroke-linejoin:round;stroke:rgb(0%,0%,0%);stroke-opacity:1;stroke-miterlimit:10;" d="M -51.025844 -0.0013125 L 49.03275 -0.0013125 " transform="matrix(1,0,0,-1,61.186,78.194)"/>
<path style=" stroke:none;fill-rule:nonzero;fill:rgb(0%,0%,0%);fill-opacity:1;" d="M 112.210938 78.195312 L 109.023438 76.601562 L 110.21875 78.195312 L 109.023438 79.789062 "/>
<g style="fill:rgb(0%,0%,0%);fill-opacity:1;">
  <use xlink:href="#glyph0-1" x="103.923" y="85.145"/>
</g>
<path style="fill:none;stroke-width:0.3985;stroke-linecap:round;stroke-linejoin:round;stroke:rgb(0%,0%,0%);stroke-opacity:1;stroke-miterlimit:10;" d="M 0.0015 -51.02475 L 0.0015 49.033844 " transform="matrix(1,0,0,-1,61.186,78.194)"/>
<path style=" stroke:none;fill-rule:nonzero;fill:rgb(0%,0%,0%);fill-opacity:1;" d="M 61.1875 27.167969 L 59.59375 30.355469 L 61.1875 29.160156 L 62.78125 30.355469 "/>
<g style="fill:rgb(0%,0%,0%);fill-opacity:1;">
  <use xlink:href="#glyph0-2" x="64.706" y="28.111"/>
</g>
<g style="fill:rgb(0%,0%,0%);fill-opacity:1;">
  <use xlink:href="#glyph0-3" x="64.706" y="87.16"/>
</g>
<path style="fill:none;stroke-width:0.3985;stroke-linecap:round;stroke-linejoin:round;stroke:rgb(0%,0%,0%);stroke-opacity:1;stroke-dasharray:2.98883,2.98883;stroke-miterlimit:10;" d="M -17.006312 -51.02475 L -17.006312 68.033844 " transform="matrix(1,0,0,-1,61.186,78.194)"/>
<path style="fill:none;stroke-width:0.3985;stroke-linecap:round;stroke-linejoin:round;stroke:rgb(0%,0%,0%);stroke-opacity:1;stroke-dasharray:2.98883,2.98883;stroke-miterlimit:10;" d="M -51.025844 17.0065 L 51.024938 17.0065 " transform="matrix(1,0,0,-1,61.186,78.194)"/>
<g clip-path="url(#clip1)" clip-rule="nonzero">
<path style="fill:none;stroke-width:0.3985;stroke-linecap:round;stroke-linejoin:round;stroke:rgb(0%,0%,0%);stroke-opacity:1;stroke-miterlimit:10;" d="M -51.025844 25.514313 C -51.025844 25.514313 -50.908656 25.541656 -50.861781 25.553375 C -50.818812 25.561188 -50.744594 25.580719 -50.701625 25.592438 C -50.65475 25.604156 -50.584437 25.623688 -50.537562 25.635406 C -50.494594 25.647125 -50.420375 25.66275 -50.377406 25.674469 C -50.330531 25.686188 -50.260219 25.705719 -50.213344 25.717438 C -50.170375 25.729156 -50.096156 25.748688 -50.053187 25.760406 C -50.006312 25.776031 -49.936 25.791656 -49.889125 25.803375 C -49.846156 25.815094 -49.771937 25.838531 -49.728969 25.85025 C -49.682094 25.861969 -49.611781 25.8815 -49.564906 25.893219 C -49.518031 25.904938 -49.447719 25.924469 -49.400844 25.936188 C -49.357875 25.951813 -49.283656 25.971344 -49.240687 25.983063 C -49.193812 25.994781 -49.1235 26.014313 -49.076625 26.026031 C -49.033656 26.041656 -48.959437 26.061188 -48.916469 26.072906 C -48.869594 26.088531 -48.799281 26.108063 -48.752406 26.119781 C -48.709437 26.135406 -48.635219 26.151031 -48.59225 26.166656 C -48.545375 26.178375 -48.475062 26.201813 -48.428187 26.213531 C -48.385219 26.229156 -48.311 26.248688 -48.268031 26.264313 C -48.221156 26.276031 -48.150844 26.295563 -48.103969 26.311188 C -48.061 26.322906 -47.986781 26.346344 -47.943812 26.358063 C -47.896937 26.373688 -47.826625 26.393219 -47.77975 26.408844 C -47.736781 26.420563 -47.662562 26.444 -47.619594 26.455719 C -47.572719 26.471344 -47.502406 26.494781 -47.455531 26.510406 C -47.412562 26.522125 -47.338344 26.545563 -47.295375 26.557281 C -47.2485 26.572906 -47.178187 26.596344 -47.131312 26.608063 C -47.088344 26.623688 -47.014125 26.647125 -46.971156 26.66275 C -46.924281 26.678375 -46.853969 26.701813 -46.807094 26.717438 C -46.764125 26.733063 -46.689906 26.7565 -46.646937 26.768219 C -46.600062 26.783844 -46.52975 26.807281 -46.482875 26.822906 C -46.439906 26.834625 -46.365687 26.858063 -46.322719 26.873688 C -46.275844 26.889313 -46.205531 26.916656 -46.158656 26.932281 C -46.111781 26.947906 -46.041469 26.971344 -45.994594 26.986969 C -45.951625 27.002594 -45.877406 27.026031 -45.834437 27.041656 C -45.787562 27.057281 -45.71725 27.084625 -45.670375 27.10025 C -45.627406 27.115875 -45.553187 27.139313 -45.510219 27.158844 C -45.463344 27.174469 -45.393031 27.197906 -45.346156 27.213531 C -45.303187 27.233063 -45.228969 27.2565 -45.186 27.276031 C -45.139125 27.291656 -45.068812 27.315094 -45.021937 27.330719 C -44.978969 27.35025 -44.90475 27.377594 -44.861781 27.393219 C -44.814906 27.408844 -44.744594 27.436188 -44.697719 27.451813 C -44.65475 27.471344 -44.580531 27.498688 -44.537562 27.514313 C -44.490687 27.533844 -44.420375 27.561188 -44.3735 27.580719 C -44.330531 27.596344 -44.256312 27.623688 -44.213344 27.643219 C -44.166469 27.658844 -44.096156 27.690094 -44.049281 27.705719 C -44.006312 27.72525 -43.932094 27.752594 -43.889125 27.768219 C -43.84225 27.78775 -43.771937 27.815094 -43.725062 27.834625 C -43.682094 27.854156 -43.607875 27.885406 -43.564906 27.901031 C -43.518031 27.920563 -43.447719 27.947906 -43.400844 27.967438 C -43.357875 27.986969 -43.283656 28.018219 -43.240687 28.03775 C -43.193812 28.057281 -43.1235 28.084625 -43.076625 28.104156 C -43.033656 28.123688 -42.959437 28.154938 -42.916469 28.174469 C -42.869594 28.194 -42.799281 28.22525 -42.752406 28.244781 C -42.705531 28.264313 -42.635219 28.295563 -42.588344 28.315094 C -42.545375 28.334625 -42.471156 28.365875 -42.428187 28.385406 C -42.381312 28.408844 -42.311 28.440094 -42.264125 28.463531 C -42.221156 28.483063 -42.146937 28.514313 -42.103969 28.533844 C -42.057094 28.553375 -41.986781 28.588531 -41.939906 28.608063 C -41.896937 28.6315 -41.822719 28.66275 -41.77975 28.686188 C -41.732875 28.705719 -41.662562 28.740875 -41.615687 28.764313 C -41.572719 28.783844 -41.4985 28.819 -41.455531 28.842438 C -41.408656 28.861969 -41.338344 28.897125 -41.291469 28.920563 C -41.2485 28.944 -41.174281 28.97525 -41.131312 28.998688 C -41.084437 29.022125 -41.014125 29.061188 -40.96725 29.080719 C -40.924281 29.104156 -40.850062 29.139313 -40.807094 29.16275 C -40.760219 29.186188 -40.689906 29.22525 -40.643031 29.248688 C -40.600062 29.272125 -40.525844 29.307281 -40.482875 29.330719 C -40.436 29.354156 -40.365687 29.393219 -40.318812 29.416656 C -40.275844 29.440094 -40.201625 29.479156 -40.158656 29.502594 C -40.111781 29.529938 -40.041469 29.565094 -39.994594 29.592438 C -39.951625 29.615875 -39.877406 29.654938 -39.834437 29.682281 C -39.787562 29.705719 -39.71725 29.748688 -39.670375 29.772125 C -39.627406 29.799469 -39.553187 29.838531 -39.510219 29.861969 C -39.463344 29.889313 -39.393031 29.932281 -39.346156 29.955719 C -39.299281 29.983063 -39.228969 30.022125 -39.182094 30.049469 C -39.139125 30.076813 -39.064906 30.119781 -39.021937 30.147125 C -38.975062 30.174469 -38.90475 30.217438 -38.857875 30.244781 C -38.814906 30.272125 -38.740687 30.315094 -38.697719 30.346344 C -38.650844 30.373688 -38.580531 30.416656 -38.533656 30.447906 C -38.490687 30.47525 -38.416469 30.518219 -38.3735 30.549469 C -38.326625 30.576813 -38.256312 30.619781 -38.209437 30.651031 C -38.166469 30.678375 -38.09225 30.729156 -38.049281 30.7565 C -38.002406 30.78775 -37.932094 30.834625 -37.885219 30.861969 C -37.84225 30.893219 -37.768031 30.940094 -37.725062 30.971344 C -37.678187 31.002594 -37.607875 31.049469 -37.561 31.080719 C -37.518031 31.111969 -37.443812 31.16275 -37.400844 31.194 C -37.353969 31.22525 -37.283656 31.276031 -37.236781 31.307281 C -37.193812 31.338531 -37.119594 31.393219 -37.076625 31.424469 C -37.02975 31.455719 -36.959437 31.5065 -36.912562 31.541656 C -36.869594 31.572906 -36.795375 31.627594 -36.752406 31.658844 C -36.705531 31.694 -36.635219 31.748688 -36.588344 31.779938 C -36.545375 31.815094 -36.471156 31.869781 -36.428187 31.904938 C -36.381312 31.940094 -36.311 31.994781 -36.264125 32.029938 C -36.221156 32.065094 -36.146937 32.123688 -36.103969 32.158844 C -36.057094 32.194 -35.986781 32.252594 -35.939906 32.28775 C -35.893031 32.326813 -35.822719 32.385406 -35.775844 32.420563 C -35.732875 32.459625 -35.658656 32.518219 -35.615687 32.553375 C -35.568812 32.592438 -35.4985 32.654938 -35.451625 32.690094 C -35.408656 32.729156 -35.334437 32.791656 -35.291469 32.830719 C -35.244594 32.869781 -35.174281 32.932281 -35.127406 32.971344 C -35.084437 33.010406 -35.010219 33.076813 -34.96725 33.115875 C -34.920375 33.154938 -34.850062 33.221344 -34.803187 33.260406 C -34.760219 33.303375 -34.686 33.369781 -34.643031 33.41275 C -34.596156 33.455719 -34.525844 33.522125 -34.478969 33.565094 C -34.436 33.608063 -34.361781 33.674469 -34.318812 33.717438 C -34.271937 33.760406 -34.201625 33.834625 -34.15475 33.877594 C -34.111781 33.920563 -34.037562 33.990875 -33.994594 34.03775 C -33.947719 34.080719 -33.877406 34.158844 -33.830531 34.201813 C -33.787562 34.248688 -33.713344 34.322906 -33.670375 34.369781 C -33.6235 34.416656 -33.553187 34.490875 -33.506312 34.53775 C -33.463344 34.584625 -33.389125 34.666656 -33.346156 34.713531 C -33.299281 34.764313 -33.228969 34.842438 -33.182094 34.889313 C -33.139125 34.940094 -33.064906 35.022125 -33.021937 35.072906 C -32.975062 35.123688 -32.90475 35.205719 -32.857875 35.2565 C -32.814906 35.307281 -32.740687 35.393219 -32.697719 35.444 C -32.650844 35.498688 -32.580531 35.588531 -32.533656 35.639313 C -32.486781 35.694 -32.416469 35.779938 -32.369594 35.834625 C -32.326625 35.889313 -32.252406 35.979156 -32.209437 36.03775 C -32.162562 36.092438 -32.09225 36.186188 -32.045375 36.240875 C -32.002406 36.299469 -31.928187 36.397125 -31.885219 36.455719 C -31.838344 36.514313 -31.768031 36.604156 -31.721156 36.666656 C -31.678187 36.72525 -31.603969 36.822906 -31.561 36.885406 C -31.514125 36.947906 -31.443812 37.045563 -31.396937 37.111969 C -31.353969 37.174469 -31.27975 37.276031 -31.236781 37.338531 C -31.189906 37.404938 -31.119594 37.510406 -31.072719 37.576813 C -31.02975 37.643219 -30.955531 37.748688 -30.912562 37.815094 C -30.865687 37.8815 -30.795375 37.990875 -30.7485 38.061188 C -30.705531 38.127594 -30.631312 38.240875 -30.588344 38.311188 C -30.541469 38.3815 -30.471156 38.498688 -30.424281 38.572906 C -30.381312 38.643219 -30.307094 38.760406 -30.264125 38.834625 C -30.21725 38.908844 -30.146937 39.029938 -30.100062 39.104156 C -30.057094 39.182281 -29.982875 39.303375 -29.939906 39.3815 C -29.893031 39.459625 -29.822719 39.588531 -29.775844 39.666656 C -29.732875 39.744781 -29.658656 39.873688 -29.615687 39.955719 C -29.568812 40.03775 -29.4985 40.174469 -29.451625 40.2565 C -29.40475 40.342438 -29.334437 40.47525 -29.287562 40.561188 C -29.244594 40.647125 -29.170375 40.791656 -29.127406 40.8815 C -29.080531 40.967438 -29.010219 41.111969 -28.963344 41.201813 C -28.920375 41.295563 -28.846156 41.444 -28.803187 41.53775 C -28.756312 41.6315 -28.686 41.783844 -28.639125 41.877594 C -28.596156 41.97525 -28.521937 42.127594 -28.478969 42.229156 C -28.432094 42.326813 -28.361781 42.486969 -28.314906 42.592438 C -28.271937 42.694 -28.197719 42.858063 -28.15475 42.963531 C -28.107875 43.069 -28.037562 43.240875 -27.990687 43.35025 C -27.947719 43.455719 -27.8735 43.6315 -27.830531 43.744781 C -27.783656 43.854156 -27.713344 44.033844 -27.666469 44.151031 C -27.6235 44.264313 -27.549281 44.447906 -27.506312 44.569 C -27.459437 44.686188 -27.389125 44.8815 -27.34225 45.002594 C -27.299281 45.123688 -27.225062 45.322906 -27.182094 45.447906 C -27.135219 45.572906 -27.064906 45.779938 -27.018031 45.908844 C -26.975062 46.03775 -26.900844 46.252594 -26.857875 46.385406 C -26.811 46.518219 -26.740687 46.736969 -26.693812 46.877594 C -26.650844 47.014313 -26.576625 47.240875 -26.533656 47.385406 C -26.486781 47.529938 -26.416469 47.764313 -26.369594 47.91275 C -26.326625 48.061188 -26.252406 48.303375 -26.209437 48.459625 C -26.162562 48.611969 -26.09225 48.861969 -26.045375 49.022125 C -25.9985 49.182281 -25.928187 49.444 -25.881312 49.608063 C -25.838344 49.772125 -25.764125 50.041656 -25.721156 50.213531 C -25.674281 50.385406 -25.603969 50.666656 -25.557094 50.846344 C -25.514125 51.022125 -25.439906 51.307281 -25.396937 51.490875 C -25.350062 51.674469 -25.27975 51.979156 -25.232875 52.170563 C -25.189906 52.365875 -25.115687 52.678375 -25.072719 52.8815 C -25.025844 53.080719 -24.955531 53.408844 -24.908656 53.615875 C -24.865687 53.826813 -24.791469 54.166656 -24.7485 54.385406 C -24.701625 54.60025 -24.631312 54.959625 -24.584437 55.186188 C -24.541469 55.41275 -24.46725 55.783844 -24.424281 56.022125 C -24.377406 56.2565 -24.307094 56.643219 -24.260219 56.893219 C -24.21725 57.139313 -24.143031 57.545563 -24.100062 57.807281 C -24.053187 58.065094 -23.982875 58.490875 -23.936 58.764313 C -23.893031 59.033844 -23.818812 59.479156 -23.775844 59.764313 C -23.728969 60.045563 -23.658656 60.514313 -23.611781 60.811188 C -23.568812 61.111969 -23.494594 61.604156 -23.451625 61.916656 C -23.40475 62.229156 -23.334437 62.744781 -23.287562 63.076813 C -23.244594 63.408844 -23.170375 63.951813 -23.127406 64.299469 C -23.080531 64.647125 -23.010219 65.221344 -22.963344 65.588531 C -22.920375 65.955719 -22.846156 66.561188 -22.803187 66.947906 C -22.756312 67.334625 -22.686 67.971344 -22.639125 68.3815 C -22.59225 68.791656 -22.521937 69.471344 -22.475062 69.904938 C -22.432094 70.342438 -22.357875 71.057281 -22.314906 71.522125 C -22.268031 71.983063 -22.197719 72.748688 -22.150844 73.240875 C -22.107875 73.733063 -22.033656 74.549469 -21.990687 75.072906 C -21.943812 75.60025 -21.8735 76.467438 -21.826625 77.026031 C -21.783656 77.588531 -21.709437 78.518219 -21.666469 79.119781 C -21.619594 79.721344 -21.549281 80.717438 -21.502406 81.361969 C -21.459437 82.0065 -21.385219 83.072906 -21.34225 83.768219 C -21.295375 84.463531 -21.225062 85.611969 -21.178187 86.361969 C -21.135219 87.111969 -21.061 88.358063 -21.018031 89.166656 C -20.971156 89.979156 -20.900844 91.326813 -20.853969 92.209625 C -20.811 93.092438 -20.736781 94.561188 -20.693812 95.522125 C -20.646937 96.483063 -20.576625 98.092438 -20.52975 99.143219 C -20.486781 100.194 -20.412562 101.944 -20.369594 103.096344 C -20.322719 104.252594 -20.252406 106.190094 -20.205531 107.467438 C -20.162562 108.744781 -20.088344 110.889313 -20.045375 112.303375 C -19.9985 113.721344 -19.928187 116.10025 -19.881312 117.682281 C -19.838344 119.264313 -19.764125 121.924469 -19.721156 123.701813 C -19.674281 125.483063 -19.603969 128.486969 -19.557094 130.498688 C -19.514125 132.510406 -19.439906 135.904938 -19.396937 138.201813 C -19.350062 140.494781 -19.27975 144.397125 -19.232875 147.041656 C -19.186 149.690094 -19.115687 154.190094 -19.068812 157.272125 C -19.025844 160.354156 -18.951625 165.619781 -18.908656 169.252594 C -18.861781 172.885406 -18.744594 183.447906 -18.744594 183.447906 " transform="matrix(1,0,0,-1,61.186,78.194)"/>
</g>
<g clip-path="url(#clip2)" clip-rule="nonzero">
<path style="fill:none;stroke-width:0.3985;stroke-linecap:round;stroke-linejoin:round;stroke:rgb(0%,0%,0%);stroke-opacity:1;stroke-miterlimit:10;" d="M -15.307094 -153.071625 C -15.307094 -153.071625 -15.064906 -131.845062 -14.975062 -125.204437 C -14.881312 -118.559906 -14.732875 -110.056 -14.639125 -105.184906 C -14.549281 -100.317719 -14.400844 -93.833344 -14.307094 -90.110687 C -14.213344 -86.384125 -14.064906 -81.286469 -13.975062 -78.341156 C -13.881312 -75.39975 -13.732875 -71.286469 -13.643031 -68.903656 C -13.549281 -66.520844 -13.400844 -63.138031 -13.307094 -61.169281 C -13.21725 -59.200531 -13.068812 -56.364594 -12.975062 -54.71225 C -12.881312 -53.056 -12.732875 -50.64975 -12.643031 -49.239594 C -12.549281 -47.829437 -12.400844 -45.759125 -12.307094 -44.540375 C -12.21725 -43.325531 -12.068812 -41.52475 -11.975062 -40.466156 C -11.881312 -39.403656 -11.732875 -37.829437 -11.643031 -36.895844 C -11.549281 -35.966156 -11.400844 -34.571625 -11.307094 -33.747406 C -11.21725 -32.923187 -11.068812 -31.681 -10.975062 -30.942719 C -10.881312 -30.204437 -10.732875 -29.095062 -10.643031 -28.431 C -10.549281 -27.770844 -10.400844 -26.770844 -10.307094 -26.173187 C -10.21725 -25.575531 -10.068812 -24.669281 -9.975062 -24.126312 C -9.881312 -23.583344 -9.736781 -22.759125 -9.643031 -22.263031 C -9.549281 -21.770844 -9.400844 -21.016937 -9.311 -20.563812 C -9.21725 -20.114594 -9.068812 -19.419281 -8.975062 -19.005219 C -8.885219 -18.591156 -8.736781 -17.954437 -8.643031 -17.571625 C -8.549281 -17.188812 -8.400844 -16.602875 -8.311 -16.247406 C -8.21725 -15.895844 -8.068812 -15.348969 -7.975062 -15.020844 C -7.885219 -14.692719 -7.736781 -14.188812 -7.643031 -13.880219 C -7.549281 -13.575531 -7.400844 -13.106781 -7.311 -12.821625 C -7.21725 -12.536469 -7.068812 -12.095062 -6.975062 -11.829437 C -6.885219 -11.563812 -6.736781 -11.14975 -6.643031 -10.903656 C -6.549281 -10.653656 -6.400844 -10.266937 -6.311 -10.032562 C -6.21725 -9.798187 -6.068812 -9.434906 -5.975062 -9.216156 C -5.885219 -8.997406 -5.736781 -8.653656 -5.643031 -8.446625 C -5.549281 -8.239594 -5.40475 -7.915375 -5.311 -7.720062 C -5.21725 -7.52475 -5.068812 -7.220062 -4.978969 -7.036469 C -4.885219 -6.852875 -4.736781 -6.563812 -4.643031 -6.388031 C -4.553187 -6.21225 -4.40475 -5.938812 -4.311 -5.77475 C -4.21725 -5.606781 -4.068812 -5.348969 -3.978969 -5.192719 C -3.885219 -5.032562 -3.736781 -4.786469 -3.643031 -4.638031 C -3.553187 -4.489594 -3.40475 -4.255219 -3.311 -4.110687 C -3.21725 -3.970062 -3.068812 -3.747406 -2.978969 -3.610687 C -2.885219 -3.473969 -2.736781 -3.263031 -2.643031 -3.130219 C -2.553187 -3.001312 -2.40475 -2.798187 -2.311 -2.673187 C -2.21725 -2.552094 -2.068812 -2.356781 -1.978969 -2.239594 C -1.885219 -2.1185 -1.736781 -1.934906 -1.643031 -1.821625 C -1.553187 -1.708344 -1.40475 -1.528656 -1.311 -1.419281 C -1.21725 -1.313812 -1.072719 -1.141937 -0.978969 -1.036469 C -0.885219 -0.934906 -0.736781 -0.770844 -0.646937 -0.669281 C -0.553187 -0.571625 -0.40475 -0.415375 -0.311 -0.317719 C -0.221156 -0.220062 -0.0727187 -0.071625 0.0210313 0.022125 C 0.114781 0.111969 0.263219 0.2565 0.353063 0.346344 C 0.446813 0.436188 0.59525 0.572906 0.689 0.658844 C 0.778844 0.744781 0.927281 0.8815 1.021031 0.963531 C 1.114781 1.045563 1.263219 1.174469 1.353063 1.252594 C 1.446813 1.334625 1.59525 1.459625 1.689 1.53775 C 1.778844 1.611969 1.927281 1.733063 2.021031 1.807281 C 2.114781 1.8815 2.263219 1.998688 2.353063 2.069 C 2.446813 2.139313 2.59525 2.252594 2.689 2.319 C 2.778844 2.389313 2.927281 2.494781 3.021031 2.561188 C 3.110875 2.6315 3.259313 2.733063 3.353063 2.799469 C 3.446813 2.865875 3.59525 2.967438 3.685094 3.029938 C 3.778844 3.092438 3.927281 3.190094 4.021031 3.252594 C 4.110875 3.311188 4.259313 3.408844 4.353063 3.467438 C 4.446813 3.526031 4.59525 3.615875 4.685094 3.674469 C 4.778844 3.729156 4.927281 3.819 5.021031 3.873688 C 5.110875 3.928375 5.259313 4.018219 5.353063 4.069 C 5.446813 4.123688 5.59525 4.209625 5.685094 4.260406 C 5.778844 4.311188 5.927281 4.397125 6.021031 4.444 C 6.110875 4.494781 6.259313 4.576813 6.353063 4.623688 C 6.446813 4.674469 6.59525 4.748688 6.685094 4.799469 C 6.778844 4.846344 6.927281 4.920563 7.021031 4.967438 C 7.110875 5.014313 7.259313 5.088531 7.353063 5.1315 C 7.442906 5.178375 7.591344 5.248688 7.685094 5.291656 C 7.778844 5.338531 7.927281 5.404938 8.017125 5.447906 C 8.110875 5.490875 8.259313 5.561188 8.353063 5.60025 C 8.442906 5.643219 8.591344 5.709625 8.685094 5.748688 C 8.778844 5.78775 8.927281 5.854156 9.017125 5.893219 C 9.110875 5.932281 9.259313 5.994781 9.353063 6.033844 C 9.442906 6.072906 9.591344 6.1315 9.685094 6.170563 C 9.778844 6.209625 9.927281 6.268219 10.017125 6.303375 C 10.110875 6.342438 10.259313 6.401031 10.353063 6.436188 C 10.442906 6.471344 10.591344 6.526031 10.685094 6.561188 C 10.778844 6.596344 10.927281 6.651031 11.017125 6.686188 C 11.110875 6.721344 11.259313 6.772125 11.349156 6.807281 C 11.442906 6.838531 11.591344 6.893219 11.685094 6.924469 C 11.774938 6.955719 11.923375 7.010406 12.017125 7.041656 C 12.110875 7.072906 12.259313 7.123688 12.349156 7.154938 C 12.442906 7.186188 12.591344 7.236969 12.685094 7.264313 C 12.774938 7.295563 12.923375 7.342438 13.017125 7.373688 C 13.110875 7.401031 13.259313 7.447906 13.349156 7.479156 C 13.442906 7.5065 13.591344 7.553375 13.685094 7.580719 C 13.774938 7.611969 13.923375 7.654938 14.017125 7.682281 C 14.110875 7.709625 14.259313 7.7565 14.349156 7.783844 C 14.442906 7.811188 14.591344 7.854156 14.685094 7.8815 C 14.774938 7.904938 14.923375 7.947906 15.017125 7.97525 C 15.110875 8.002594 15.259313 8.041656 15.349156 8.069 C 15.442906 8.092438 15.591344 8.1315 15.681188 8.158844 C 15.774938 8.182281 15.923375 8.221344 16.017125 8.248688 C 16.106969 8.272125 16.255406 8.311188 16.349156 8.334625 C 16.442906 8.358063 16.591344 8.397125 16.681188 8.420563 C 16.774938 8.444 16.923375 8.483063 17.017125 8.5065 C 17.106969 8.529938 17.255406 8.565094 17.349156 8.588531 C 17.442906 8.611969 17.591344 8.647125 17.681188 8.670563 C 17.774938 8.690094 17.923375 8.72525 18.017125 8.748688 C 18.106969 8.768219 18.255406 8.803375 18.349156 8.826813 C 18.442906 8.846344 18.591344 8.8815 18.681188 8.901031 C 18.774938 8.924469 18.923375 8.955719 19.017125 8.97525 C 19.106969 8.998688 19.255406 9.029938 19.349156 9.049469 C 19.442906 9.069 19.591344 9.104156 19.681188 9.123688 C 19.774938 9.143219 19.923375 9.174469 20.013219 9.194 C 20.106969 9.213531 20.255406 9.244781 20.349156 9.264313 C 20.439 9.283844 20.587438 9.315094 20.681188 9.330719 C 20.774938 9.35025 20.923375 9.3815 21.013219 9.401031 C 21.106969 9.416656 21.255406 9.447906 21.349156 9.467438 C 21.439 9.483063 21.587438 9.514313 21.681188 9.529938 C 21.774938 9.549469 21.923375 9.576813 22.013219 9.596344 C 22.106969 9.611969 22.255406 9.639313 22.349156 9.654938 C 22.439 9.674469 22.587438 9.701813 22.681188 9.721344 C 22.774938 9.736969 22.923375 9.764313 23.013219 9.779938 C 23.106969 9.795563 23.255406 9.822906 23.349156 9.838531 C 23.439 9.854156 23.587438 9.8815 23.681188 9.897125 C 23.774938 9.91275 23.919469 9.940094 24.013219 9.955719 C 24.106969 9.971344 24.255406 9.998688 24.34525 10.014313 C 24.439 10.029938 24.587438 10.053375 24.681188 10.069 C 24.771031 10.084625 24.919469 10.108063 25.013219 10.123688 C 25.106969 10.139313 25.255406 10.16275 25.34525 10.178375 C 25.439 10.194 25.587438 10.217438 25.681188 10.233063 C 25.771031 10.244781 25.919469 10.268219 26.013219 10.283844 C 26.106969 10.299469 26.255406 10.322906 26.34525 10.334625 C 26.439 10.35025 26.587438 10.373688 26.681188 10.385406 C 26.771031 10.401031 26.919469 10.424469 27.013219 10.436188 C 27.106969 10.451813 27.255406 10.471344 27.34525 10.486969 C 27.439 10.498688 27.587438 10.522125 27.681188 10.533844 C 27.771031 10.549469 27.919469 10.569 28.013219 10.584625 C 28.106969 10.596344 28.2515 10.615875 28.34525 10.6315 C 28.439 10.643219 28.587438 10.66275 28.677281 10.674469 C 28.771031 10.690094 28.919469 10.709625 29.013219 10.721344 C 29.103063 10.733063 29.2515 10.7565 29.34525 10.768219 C 29.439 10.779938 29.587438 10.799469 29.677281 10.811188 C 29.771031 10.822906 29.919469 10.842438 30.013219 10.854156 C 30.103063 10.869781 30.2515 10.889313 30.34525 10.901031 C 30.439 10.91275 30.587438 10.928375 30.677281 10.940094 C 30.771031 10.951813 30.919469 10.971344 31.013219 10.983063 C 31.103063 10.994781 31.2515 11.014313 31.34525 11.026031 C 31.439 11.03775 31.587438 11.053375 31.677281 11.065094 C 31.771031 11.076813 31.919469 11.096344 32.013219 11.108063 C 32.103063 11.119781 32.2515 11.135406 32.34525 11.147125 C 32.439 11.158844 32.583531 11.174469 32.677281 11.186188 C 32.771031 11.197906 32.919469 11.213531 33.009313 11.22525 C 33.103063 11.236969 33.2515 11.252594 33.34525 11.264313 C 33.435094 11.272125 33.583531 11.291656 33.677281 11.299469 C 33.771031 11.311188 33.919469 11.326813 34.009313 11.338531 C 34.103063 11.346344 34.2515 11.365875 34.34525 11.373688 C 34.435094 11.385406 34.583531 11.401031 34.677281 11.41275 C 34.771031 11.420563 34.919469 11.436188 35.009313 11.447906 C 35.103063 11.455719 35.2515 11.471344 35.34525 11.483063 C 35.435094 11.490875 35.583531 11.5065 35.677281 11.518219 C 35.771031 11.526031 35.919469 11.541656 36.009313 11.553375 C 36.103063 11.561188 36.2515 11.576813 36.34525 11.584625 C 36.435094 11.596344 36.583531 11.611969 36.677281 11.619781 C 36.771031 11.627594 36.915563 11.643219 37.009313 11.654938 C 37.103063 11.66275 37.2515 11.678375 37.341344 11.686188 C 37.435094 11.694 37.583531 11.709625 37.677281 11.717438 C 37.767125 11.72525 37.915563 11.740875 38.009313 11.752594 C 38.103063 11.760406 38.2515 11.772125 38.341344 11.783844 C 38.435094 11.791656 38.583531 11.803375 38.677281 11.811188 C 38.767125 11.822906 38.915563 11.834625 39.009313 11.842438 C 39.103063 11.854156 39.2515 11.865875 39.341344 11.873688 C 39.435094 11.885406 39.583531 11.897125 39.677281 11.904938 C 39.767125 11.91275 39.915563 11.928375 40.009313 11.936188 C 40.103063 11.944 40.2515 11.955719 40.341344 11.963531 C 40.435094 11.971344 40.583531 11.986969 40.677281 11.994781 C 40.767125 12.002594 40.915563 12.014313 41.009313 12.022125 C 41.099156 12.029938 41.247594 12.041656 41.341344 12.049469 C 41.435094 12.057281 41.583531 12.072906 41.673375 12.080719 C 41.767125 12.084625 41.915563 12.10025 42.009313 12.108063 C 42.099156 12.115875 42.247594 12.127594 42.341344 12.135406 C 42.435094 12.139313 42.583531 12.154938 42.673375 12.16275 C 42.767125 12.170563 42.915563 12.182281 43.009313 12.190094 C 43.099156 12.197906 43.247594 12.205719 43.341344 12.213531 C 43.435094 12.221344 43.583531 12.233063 43.673375 12.240875 C 43.767125 12.248688 43.915563 12.260406 44.009313 12.268219 C 44.099156 12.276031 44.247594 12.283844 44.341344 12.291656 C 44.435094 12.299469 44.583531 12.311188 44.673375 12.319 C 44.767125 12.326813 44.915563 12.334625 45.009313 12.342438 C 45.099156 12.35025 45.247594 12.361969 45.341344 12.369781 C 45.431188 12.377594 45.579625 12.385406 45.673375 12.393219 C 45.767125 12.401031 45.915563 12.41275 46.005406 12.416656 C 46.099156 12.424469 46.247594 12.436188 46.341344 12.444 C 46.431188 12.447906 46.579625 12.459625 46.673375 12.467438 C 46.767125 12.471344 46.915563 12.483063 47.005406 12.490875 C 47.099156 12.494781 47.247594 12.5065 47.341344 12.514313 C 47.431188 12.518219 47.579625 12.529938 47.673375 12.53775 C 47.767125 12.541656 47.915563 12.553375 48.005406 12.561188 C 48.099156 12.565094 48.247594 12.576813 48.341344 12.580719 C 48.431188 12.588531 48.579625 12.596344 48.673375 12.604156 C 48.767125 12.611969 48.915563 12.619781 49.005406 12.627594 C 49.099156 12.6315 49.247594 12.643219 49.341344 12.647125 C 49.431188 12.654938 49.579625 12.66275 49.673375 12.670563 C 49.763219 12.674469 49.911656 12.686188 50.005406 12.690094 C 50.099156 12.697906 50.247594 12.705719 50.337438 12.713531 C 50.431188 12.717438 50.579625 12.729156 50.673375 12.733063 C 50.763219 12.740875 51.005406 12.7565 51.005406 12.7565 " transform="matrix(1,0,0,-1,61.186,78.194)"/>
</g>
</g>
</svg>
